<mxfile host="app.diagrams.net" modified="2021-03-24T09:06:19.178Z" agent="5.0 (Windows NT 10.0; WOW64) AppleWebKit/537.36 (KHTML, like Gecko) Chrome/69.0.3497.100 Safari/537.36" etag="NXz38eRuz7qUBLKFnShf" version="14.5.0" type="github">
  <diagram id="d1VOasxYI3gjjCkIhVms" name="Page-1">
    <mxGraphModel dx="786" dy="790" grid="0" gridSize="10" guides="1" tooltips="1" connect="1" arrows="1" fold="1" page="1" pageScale="1" pageWidth="827" pageHeight="1169" backgroundImage="{&quot;src&quot;:&quot;https://blog.popkx.com/usr/uploads/2021/03/3839539037.png&quot;,&quot;width&quot;:&quot;270&quot;,&quot;height&quot;:&quot;126&quot;}" math="0" shadow="1">
      <root>
        <mxCell id="0" />
        <mxCell id="1" parent="0" />
        <mxCell id="1xZrTiALznDN8aHcxSZK-1" value="" style="endArrow=classic;html=1;strokeWidth=3;" edge="1" parent="1">
          <mxGeometry width="50" height="50" relative="1" as="geometry">
            <mxPoint x="240" y="640" as="sourcePoint" />
            <mxPoint x="240" y="400" as="targetPoint" />
          </mxGeometry>
        </mxCell>
        <mxCell id="1xZrTiALznDN8aHcxSZK-2" value="" style="endArrow=classic;html=1;strokeWidth=3;labelBorderColor=none;" edge="1" parent="1">
          <mxGeometry width="50" height="50" relative="1" as="geometry">
            <mxPoint x="240" y="640" as="sourcePoint" />
            <mxPoint x="480" y="640" as="targetPoint" />
          </mxGeometry>
        </mxCell>
        <mxCell id="1xZrTiALznDN8aHcxSZK-3" value="&lt;b&gt;&lt;font style=&quot;font-size: 20px&quot;&gt;x&lt;/font&gt;&lt;/b&gt;" style="text;html=1;strokeColor=none;fillColor=none;align=center;verticalAlign=middle;whiteSpace=wrap;rounded=0;" vertex="1" parent="1">
          <mxGeometry x="460" y="640" width="40" height="20" as="geometry" />
        </mxCell>
        <mxCell id="1xZrTiALznDN8aHcxSZK-4" value="&lt;b&gt;&lt;font style=&quot;font-size: 20px&quot;&gt;y&lt;/font&gt;&lt;/b&gt;" style="text;html=1;strokeColor=none;fillColor=none;align=center;verticalAlign=middle;whiteSpace=wrap;rounded=0;" vertex="1" parent="1">
          <mxGeometry x="240" y="400" width="40" height="20" as="geometry" />
        </mxCell>
        <mxCell id="1xZrTiALznDN8aHcxSZK-5" value="&lt;b&gt;&lt;font style=&quot;font-size: 20px&quot;&gt;o&lt;/font&gt;&lt;/b&gt;" style="text;html=1;strokeColor=none;fillColor=none;align=center;verticalAlign=middle;whiteSpace=wrap;rounded=0;" vertex="1" parent="1">
          <mxGeometry x="210" y="640" width="40" height="20" as="geometry" />
        </mxCell>
        <mxCell id="1xZrTiALznDN8aHcxSZK-7" value="" style="ellipse;whiteSpace=wrap;html=1;aspect=fixed;fillColor=#0050ef;strokeColor=#001DBC;fontColor=#ffffff;" vertex="1" parent="1">
          <mxGeometry x="338" y="530" width="10" height="10" as="geometry" />
        </mxCell>
        <mxCell id="1xZrTiALznDN8aHcxSZK-14" value="&lt;b&gt;p&lt;sub&gt;1&lt;/sub&gt;(1, 1)&lt;/b&gt;" style="text;html=1;strokeColor=none;fillColor=none;align=center;verticalAlign=middle;whiteSpace=wrap;rounded=0;" vertex="1" parent="1">
          <mxGeometry x="338" y="530" width="70" height="20" as="geometry" />
        </mxCell>
        <mxCell id="1xZrTiALznDN8aHcxSZK-15" value="" style="shape=requiredInterface;html=1;verticalLabelPosition=bottom;rotation=-110;direction=south;" vertex="1" parent="1">
          <mxGeometry x="260" y="625" width="20" height="10" as="geometry" />
        </mxCell>
        <mxCell id="1xZrTiALznDN8aHcxSZK-16" value="" style="endArrow=classic;html=1;strokeWidth=3;labelBorderColor=none;exitX=0.75;exitY=0;exitDx=0;exitDy=0;fontColor=#331A00;rounded=1;dashed=1;" edge="1" parent="1" source="1xZrTiALznDN8aHcxSZK-5">
          <mxGeometry width="50" height="50" relative="1" as="geometry">
            <mxPoint x="240" y="630" as="sourcePoint" />
            <mxPoint x="420" y="460" as="targetPoint" />
          </mxGeometry>
        </mxCell>
        <mxCell id="1xZrTiALznDN8aHcxSZK-18" value="" style="endArrow=classic;html=1;strokeWidth=3;exitX=0.75;exitY=0;exitDx=0;exitDy=0;dashed=1;" edge="1" parent="1" source="1xZrTiALznDN8aHcxSZK-5">
          <mxGeometry width="50" height="50" relative="1" as="geometry">
            <mxPoint x="210" y="630" as="sourcePoint" />
            <mxPoint x="60" y="470" as="targetPoint" />
          </mxGeometry>
        </mxCell>
        <mxCell id="1xZrTiALznDN8aHcxSZK-19" value="&lt;b&gt;&lt;font style=&quot;font-size: 20px&quot;&gt;x&lt;sup&gt;&#39;&lt;/sup&gt;&lt;/font&gt;&lt;/b&gt;" style="text;html=1;strokeColor=none;fillColor=none;align=center;verticalAlign=middle;whiteSpace=wrap;rounded=0;" vertex="1" parent="1">
          <mxGeometry x="414" y="460" width="40" height="20" as="geometry" />
        </mxCell>
        <mxCell id="1xZrTiALznDN8aHcxSZK-20" value="&lt;b&gt;&lt;font style=&quot;font-size: 20px&quot;&gt;y&lt;sup&gt;&#39;&lt;/sup&gt;&lt;/font&gt;&lt;/b&gt;" style="text;html=1;strokeColor=none;fillColor=none;align=center;verticalAlign=middle;whiteSpace=wrap;rounded=0;" vertex="1" parent="1">
          <mxGeometry x="70" y="460" width="40" height="20" as="geometry" />
        </mxCell>
        <mxCell id="1xZrTiALznDN8aHcxSZK-25" value="" style="shape=requiredInterface;html=1;verticalLabelPosition=bottom;rotation=-209;direction=south;" vertex="1" parent="1">
          <mxGeometry x="220" y="610" width="20" height="10" as="geometry" />
        </mxCell>
        <mxCell id="1xZrTiALznDN8aHcxSZK-27" value="&lt;span style=&quot;font-size: 20px&quot;&gt;&lt;b&gt;θ&lt;/b&gt;&lt;/span&gt;" style="text;html=1;strokeColor=none;fillColor=none;align=center;verticalAlign=middle;whiteSpace=wrap;rounded=0;" vertex="1" parent="1">
          <mxGeometry x="270" y="615" width="40" height="20" as="geometry" />
        </mxCell>
        <mxCell id="1xZrTiALznDN8aHcxSZK-28" value="&lt;span style=&quot;font-size: 20px&quot;&gt;&lt;b&gt;θ&lt;/b&gt;&lt;/span&gt;" style="text;html=1;strokeColor=none;fillColor=none;align=center;verticalAlign=middle;whiteSpace=wrap;rounded=0;" vertex="1" parent="1">
          <mxGeometry x="200" y="585" width="40" height="20" as="geometry" />
        </mxCell>
        <mxCell id="1xZrTiALznDN8aHcxSZK-34" value="" style="ellipse;whiteSpace=wrap;html=1;aspect=fixed;strokeColor=#001DBC;fontColor=#ffffff;fillColor=#330000;" vertex="1" parent="1">
          <mxGeometry x="342" y="635" width="10" height="10" as="geometry" />
        </mxCell>
        <mxCell id="1xZrTiALznDN8aHcxSZK-38" value="" style="ellipse;whiteSpace=wrap;html=1;aspect=fixed;strokeColor=#001DBC;fontColor=#ffffff;fillColor=#330000;" vertex="1" parent="1">
          <mxGeometry x="314" y="556" width="10" height="10" as="geometry" />
        </mxCell>
        <mxCell id="1xZrTiALznDN8aHcxSZK-40" value="" style="ellipse;whiteSpace=wrap;html=1;aspect=fixed;strokeColor=#001DBC;fontColor=#ffffff;fillColor=#330000;" vertex="1" parent="1">
          <mxGeometry x="235" y="529" width="10" height="10" as="geometry" />
        </mxCell>
        <mxCell id="1xZrTiALznDN8aHcxSZK-41" value="" style="ellipse;whiteSpace=wrap;html=1;aspect=fixed;strokeColor=#001DBC;fontColor=#ffffff;fillColor=#330000;" vertex="1" parent="1">
          <mxGeometry x="154" y="556" width="10" height="10" as="geometry" />
        </mxCell>
        <mxCell id="1xZrTiALznDN8aHcxSZK-42" value="" style="endArrow=none;dashed=1;html=1;dashPattern=1 3;strokeWidth=2;fontColor=#331A00;exitX=0.5;exitY=1;exitDx=0;exitDy=0;" edge="1" parent="1">
          <mxGeometry width="50" height="50" relative="1" as="geometry">
            <mxPoint x="159" y="561" as="sourcePoint" />
            <mxPoint x="240" y="561" as="targetPoint" />
          </mxGeometry>
        </mxCell>
        <mxCell id="1xZrTiALznDN8aHcxSZK-43" value="" style="endArrow=none;dashed=1;html=1;dashPattern=1 3;strokeWidth=2;fontColor=#331A00;exitX=0.5;exitY=1;exitDx=0;exitDy=0;" edge="1" parent="1">
          <mxGeometry width="50" height="50" relative="1" as="geometry">
            <mxPoint x="159" y="561" as="sourcePoint" />
            <mxPoint x="319" y="561" as="targetPoint" />
          </mxGeometry>
        </mxCell>
        <mxCell id="1xZrTiALznDN8aHcxSZK-44" value="" style="endArrow=none;dashed=1;html=1;dashPattern=1 3;strokeWidth=2;fontColor=#331A00;exitX=0;exitY=0.5;exitDx=0;exitDy=0;" edge="1" parent="1">
          <mxGeometry width="50" height="50" relative="1" as="geometry">
            <mxPoint x="159" y="561" as="sourcePoint" />
            <mxPoint x="159" y="640" as="targetPoint" />
          </mxGeometry>
        </mxCell>
        <mxCell id="1xZrTiALznDN8aHcxSZK-45" value="" style="endArrow=none;dashed=1;html=1;dashPattern=1 3;strokeWidth=2;fontColor=#331A00;exitX=0.5;exitY=1;exitDx=0;exitDy=0;" edge="1" parent="1">
          <mxGeometry width="50" height="50" relative="1" as="geometry">
            <mxPoint x="160" y="640" as="sourcePoint" />
            <mxPoint x="241" y="640" as="targetPoint" />
          </mxGeometry>
        </mxCell>
        <mxCell id="1xZrTiALznDN8aHcxSZK-46" value="" style="endArrow=none;dashed=1;html=1;dashPattern=1 3;strokeWidth=2;fontColor=#331A00;exitX=0;exitY=0.5;exitDx=0;exitDy=0;" edge="1" parent="1">
          <mxGeometry width="50" height="50" relative="1" as="geometry">
            <mxPoint x="320.5" y="566" as="sourcePoint" />
            <mxPoint x="320.5" y="645" as="targetPoint" />
          </mxGeometry>
        </mxCell>
        <mxCell id="1xZrTiALznDN8aHcxSZK-47" value="&lt;b&gt;&lt;font style=&quot;font-size: 20px&quot;&gt;1&lt;/font&gt;&lt;/b&gt;" style="text;html=1;strokeColor=none;fillColor=none;align=center;verticalAlign=middle;whiteSpace=wrap;rounded=0;" vertex="1" parent="1">
          <mxGeometry x="335" y="645" width="40" height="20" as="geometry" />
        </mxCell>
        <mxCell id="1xZrTiALznDN8aHcxSZK-48" value="&lt;b&gt;&lt;font style=&quot;font-size: 20px&quot;&gt;1&lt;/font&gt;&lt;/b&gt;" style="text;html=1;strokeColor=none;fillColor=none;align=center;verticalAlign=middle;whiteSpace=wrap;rounded=0;" vertex="1" parent="1">
          <mxGeometry x="235" y="525" width="40" height="20" as="geometry" />
        </mxCell>
        <mxCell id="1xZrTiALznDN8aHcxSZK-49" value="&lt;b&gt;&lt;font style=&quot;font-size: 20px&quot;&gt;1&lt;sup&gt;&#39;&lt;/sup&gt;&lt;/font&gt;&lt;/b&gt;" style="text;html=1;strokeColor=none;fillColor=none;align=center;verticalAlign=middle;whiteSpace=wrap;rounded=0;" vertex="1" parent="1">
          <mxGeometry x="320" y="551" width="40" height="20" as="geometry" />
        </mxCell>
        <mxCell id="1xZrTiALznDN8aHcxSZK-50" value="&lt;b&gt;&lt;font style=&quot;font-size: 20px&quot;&gt;1&lt;sup&gt;&#39;&lt;/sup&gt;&lt;/font&gt;&lt;/b&gt;" style="text;html=1;strokeColor=none;fillColor=none;align=center;verticalAlign=middle;whiteSpace=wrap;rounded=0;" vertex="1" parent="1">
          <mxGeometry x="140" y="531" width="40" height="20" as="geometry" />
        </mxCell>
        <mxCell id="1xZrTiALznDN8aHcxSZK-51" value="" style="ellipse;whiteSpace=wrap;html=1;aspect=fixed;fillColor=#0050ef;strokeColor=#001DBC;fontColor=#ffffff;" vertex="1" parent="1">
          <mxGeometry x="235" y="500" width="10" height="10" as="geometry" />
        </mxCell>
        <mxCell id="1xZrTiALznDN8aHcxSZK-52" value="&lt;b&gt;p&#39;&lt;sub&gt;1&lt;/sub&gt;(1&lt;sup&gt;&#39;&lt;/sup&gt;, 1&lt;sup&gt;&#39;&lt;/sup&gt;)&lt;/b&gt;" style="text;html=1;strokeColor=none;fillColor=none;align=center;verticalAlign=middle;whiteSpace=wrap;rounded=0;" vertex="1" parent="1">
          <mxGeometry x="235" y="500" width="70" height="20" as="geometry" />
        </mxCell>
        <mxCell id="1xZrTiALznDN8aHcxSZK-56" value="" style="shape=image;verticalLabelPosition=bottom;labelBackgroundColor=#ffffff;verticalAlign=top;aspect=fixed;imageAspect=0;image=data:image/png,iVBORw0KGgoAAAANSUhEUgAAAHAAAABsCAYAAACy9DarAAAgAElEQVR4Ad29R7Rl53mm9+504g3nhkpAFVAoACQAiiAFgk22JHZTyZLlkQf2zPbAXh540B557m5P2+1Jy1K3rSV5YrsVWpLttbpbNKWWKFFMYgCJQAQCVQAq3nzvSTt6Pe+/z61bQBUIEYGiD3Dr5H32/r/0fvGPiulek6YdNXEmKVajRtwiRcePefah38JpSIvzicI5RPGP4Vw+9Is/+YNcb7P4v32jUVTXKudTpfu7h8o6mbJOR53eQEkUqykr1XWtKI6lpj1A+1Uv4PHinvyhOx/zkeO/SIpaAtz5qXs/W3w+SVIJovlgjZqiUNPUqptKTV3f+wD/v3gnUhQlUh0IyF1ZQJtSjWrFUaTUxMsydTqZ4jSRlEhJrNiLk9xevMWCvEsB4GPv8qOLI//wewgZZT5u0nKlIi7yff+lH34uMChr5J++2++3XN7evasD3u1DHLo9RtJEStJSVT5XVVf+dMrFx0oUKVXUxCZY1CSIjBTF4QTvdn53+7EP6jVYryp99Gghkaxce17jrVv6vd//Xd26dctcCceOJ4eaz2aKbQwgshQt1vvEeXL9gaOluoK7pToKHB8lsQbDgVbX1tTr9RWlsbI0U1M3uvjoI/r8L/+apFpqSqmspbIKiiKOFceplLQCcOL3fqSHi/VvpCTLfI1xnqtsaqXhgG9hE57yt/jij/Sr7+OXzOlxOOAJaXvuG1/X//jP/pm+9rWvaZLPdOX1qzozWlZdV+r1OkrjWBWLWrHIjS/n5CVxqPk8V2G1FDi64aNppATJzlJLGaxz+tQpxVmiLOtqtLqqz/3c52B5/dwv/4derGJ8qDjpKM6iwETvF/EWywg9sBgwWVHJl6RjAi4+1d5zlW+h6Vs+8aE9rWYzJb1e+L0KI1AJMfnXv/97+if/+J9otLai6zduaPtorKU0VllVXvxiUijnIprKF9007QVFUlwHiVxcRK+TKoo6ypDuSOqm2N1YWTe8Ns1zfeTSI0IiO/2+jo4m+upfflmHO3vauXZLv/Jrv6buaKT84EBqEiXdblhs1vEkxyx+8Ee95xKaRuFaGlSFooPtG00n7Sjr9hRnHZ+4iQfXA2LezxP4EU48PzrSre1trS2vaLC+pjdffEW//uv/XL/xG7+ppJNoc2Oda1KWpYojFGatyKolECmOg0Rg8LnVSGJVqajKdiHQzrXt6HQ2VZzEUlEZwB1OxkriRKfOnlG31xMALk0zLa2MNBwMtLS0pJ29XVVVpH/8P/z3evLv/+ydV1g2tzEEPw8BUCTvZk0X+IzP8z1EjnPju3WjalqoKkullspYC1165wn8HXjWWVrSfWmm7z/7nF77sz/XP/2f/qkuv3ZZe8VMZ/sjYcvLstB8OlVZ5CqrXHVe+UJ7WapuminNEiVpaksP8GANIGhcN5aquKpVNY2GcapinpuYUd3o1PKqOt2OeNzMcqWoyLpSeXik6bzQ/GCs/mCg3aM9/c6//C39d6NNnXv8o6omc0XzUnGvIyHNSRQIwHqCKxaEfLfrC5H4zuLmxzh8jaK97RsNLkQ36yn5gCXwrefB+XgxFyd2l/tmNterr76qf/mbv6lvfOMb+tMv/5VWOz2trq7a9VkgwXw6UY17URZWMwASmJe1U9S0RJEJiW0EvGRxbAlLk8TSFVWNAgzhe5GUJlarTYJks4ax/Nk0VZqkqmCANNV9584pLyvdf+EB/aN/9N/q4aeelJC+eSH1QPW4Am+RIg74Trdgku0UHH83bSWwalTOcktgtLd13Y58t9dX2unc5pAPQIWivsw8Rr4LTcIrUbhAEARqor1Vk6n+xW/8pr73zDP64z/8I03nUz108SFNJhONx2PNplOj5SRJ1Elj5flcZT5XXeEnhuObgO1j1ow16GaZCdTpdEyQIVLayaxe4zhWU5TiHm+rm3VUx5Eq1G4Ng1RK0khRnClOUnW6Xa2fOq3V0ZryvNDGmbP6L/+r/1of/weflSACiBZmCKjjtolq4ePiWu+4Z0n83eDV3Y2AdUvAdzpMENsfxil3/PK9n8CAtj9wcoMbijmIbK+O1QPqZXGrG33pL/5CLzz/nF69/JquHu6pK+nM6dO6cfOm5WFzc9PHyvNc08mhOk3H8aPKUgicxDVojk05lwJhi6KQOqnqslTRNJpUtZIyVxJn6nSJSElRkiiLiEa1N2IJDbaSn45M4CQJPujh4aEd7OHyskHU//Jb/6v+83yup3/pHwbm5CDmqOjY7kYESN6ytv6tltkWP/vD7lMzCJ/iYK2hP/4SElHjGx6/8qM/qGtCBGFBABLt2RpReVGC8PsH5oX+8k//VP/i139dX/7KV7S8tKSPnrtfSNrVN990lKiTJWqqwseLGiRGqhIpjRKlaawIZIPE1yg+XodZ0Gaxsji1ykSFImlpFFsisYlICjYzyxK/Z+HhXONIPX4ERZq0NjVBCjNFSaSU6MhsqvnenuKspy9/6S91/vwFnX3kohrOhyAJ8B+Q5eBDrNjqoV1STpd1wFd9l+vNx1ObQkNsnt7ldo+X7/LJd3yJk8ZeVS2I4MMQr0FC7GQ3voAoTvXc976rP/zjP9I3v/lNXdm+pZXdXX3mU09bgp999ln1+r3gfLe+HQcAbWKfEhYeXgy+uAkZQzgWzXSAgC3h4iQQNIoNakzkKFETlUpNnHDxABzUckkwAcSbpnbUAUYQkxWvqkaz2UxROpHiXC++9KK+9O//TD+f/rI2HzofTEMnYcFVlqUlthungWhoTDNckBVbL872h6w9fJVyQk2N6ebpD/nGO5Lond90cLyJfAEQ09LuhckVZymrooObN/XKiy/pr778Zb324veFf3ZhaUlH47G+/9z3lGaZsiwOQCWq7DYEUW6UxKizRGmUhccwCCvRwCCAlViJmSeAF+K8nYX0xUgt340NcqIGF12qk8AFWRTsYdygAqVMiYMEnShVnGYgI8eQxXGSRMOVFa0Ol/T1r3xFj338SW0+8kBYHA7KIata6I64SlSnRMJkVc7bBk9qhDE4Joe11dvX1wSsja1adn37Z96fV/glS0vrF6EjACtVrQbxYxGiSC+//AP9z//81/Xd7z5jpuLC+v2+bQ8L3FSVOpnly5+POE5M+CtEWewfEdZqgkpkQeIosYTbbYh5HOwXqpO/xaITNMeB73Z7KoqZptOp+gC7NNV8PlNVlZY87HiWJgYwKb5nkorwXmCuruokcUju1tYtlVWt/+v3/0BL6yt66KMfsRpWhdbBzbHuczSHRfZxYajYnqzjDxDbVo0LecttQVO0C97EW95+n5+GH7E6syLjrLA3qD7Fqopcrz/7rL78xT/VM3/zDe3euK5iNnHQNqkLdeJGvTRSB21Vz5XUc0V1oTSuFEW1kqhWGjfKYqTNKsW2j99AMi19Efe4C0FdYn44F9gBrncYP4417PfV63a0u7trP3G0sqIsjjSbjC1duCAwAdKKZPMektyNE/VgAIgZRepEsU6N1vXaD17R7/3W/6b9N294UQFQrLb/WAKDuWBOoFbLngRZjtXr8RdOkKVd0g/Bf+eXOFvb2eALNWUpSw+wfDzW3s6u/uxPvqA//4s/9+JtbGxYCvDrACMQAGcdLoXdsKPE26uyceAZwgBWsiwz6gTy8924VWkEoCEkHG3/kIVKYuHac48dQ60jMUmaqJ8OtLG5oclsquRg3876gw8+qMlk5suIozSoXIIDEIx728XEGZ0k7SjCJVOj9bU1vfTyy/r2t76lp5OnFfU66nS6QnIIECxuITwWnkHEqrUyi/dv69P2lVbm3tmNuP3tH/2RzxGpYPVAtY2qPPdiTqYTbb9xVTeuXdOLLzyvNy5fVqQQyzTx4sgqFkI1TeHvBigft4CosDsSpZkywoGoL5x53ATkq7V9+H12wEXSoDaX85yUGcRH/fH5spjZUVxdXrV2yLqptre2lJeFVlfXNJ8XJrQBTgRSDQTMEhikVc9REpgFTVBVmhMoz3P98R/8gc/rZ37pF+1ndod9q9Ig+9jr28RksUGkd77SUqylBO/x98ET0NLX/hp3TaW8nOlgd09vvHFF3/n63+iFZ5/T1TevaDQaqshnKvJCcTdRUdSqgN4xoa7aHEuiGakBFS4OXTZzdbKOVRsSVJXERSOnfkCMWSf1Y1Re36qUiEakmAWe55a69fV17e/umEBI5DKx1+WeptOZrl+/puWVVY1GI82mM4Ml1G9wBwIC5jG/ibbAv8V5mUxnBiuc29bWtr78V3+ln/6Zv6/l0YriTqLicKZESComMWibYPSCvN1BsjuetFQkMN8+/ODvfAKRqqbUrDjUzZ2rev2NV/X6m6/q9auvajY/Uqcbqd9PNFjKNOyn6nUjddJa3aRWltRKktpAIyEb3Tq8nTTSsN+zH5jPZ+bqpUFfK0tLWh4OrZIhIumlfrerYT8EoVdXVnXqzFkNhkPFaayllWWN1tasCiezmSXg8OhIS8vLWlpZcQJ10B+YiFaZrfRZkltAZFsKECEyFCeajI/sKp09fVqdJLUP+wf/+/+hPM+VT+aKUUhoJFJe5BMBdScocTeaLd7mvQ9FAu3rtf4auAtJYoGODg+1t7evg4NDa9Zet6s6TRVVqTq9rqrZVDdu3tC4KA1YSZBmca26Sm0PF6oD9bU8XNLh0VTzPFc2SLU2GolIB5KKanN5iMsPUttJ4phUIgz7QzvtAJRr169rYzQKsdIUdwLAk5kAlx5+WNevXtXBwYHWNzaUW5UST8WPRHXyGKEOUolPiirvkwZLEuXzudUtUvutb31LH//yx/Tkpz+ltD9wkrmYzW9jhJZCSBYEeici8tHFOiwIG+5PssG7Ocqd377jmf3LVp/XAIWmMUTf2z8w0tva2tL+3p4uPXifHjh/QalqHR4d6nBn2xysMjcBHARRo7JMHQrLqzKAGS60rIz8mtYxRwIqZyQadXsd1apNOIhGzJO8H3bvxs3rWl5d0frmprP5Kfk/AA+QFKLE2N7aoGPz9GmNt/f8OdvIFhpCRNwRgzJn92uVZaVSpbpZVyVJ49ncNns6mWh5ZUVf/+pX9fiTH1Nvc+S14v2EdF4bbODFhYTdsZh3eXJ3AprsLe1/GAvc5aBvfQnORBK5B8zM53Nz897+np9vbq7rwfMXdOnSQ0qjWteuXlNS5MouPqimvt9Ba9JE2MZZHqnIcyPEeV6oqCrlRa4edT1ppl7WESgXtIk/2LEN7FhSyC5QkoArYFsF6KkbMwjhOvQwOT9CXE1DqQXHIMIytR0l/6fDsVGnoiTEEABKrRQSefS1VpVKVGPVqM6I0mDLS/uSW7du2cf95t98S/9w/RekTlcRge46ZE9Ort27Wfp3JuB7lL7FySwgMhfnqH4RkqkYdmKOT378p/XwhfPqd3tKYzi4UFwCTM4piRrNZ7km8yNNJlMdHeaazec6mow1GU+9UHlRqCApK6nXHwr75lKJPFe/11Wn2zPBKlwJXAZrmEiro1VHRbBJqEFuwVUJj4lQAQ6pmZnPKvXizDYR3cbHraZhBo65kEirikjzqnDorabKzxGnUEkAQxwdHOpLX/qSLj10URcee8zfxI7EC1drsXDv4v7uBOQCFwe7S9T8XRz3jo94UQhpOTJi/Kbp+EjzyVgba6v66KVL2hytOp6Js54RcK7Id1Wqy1ydLFNvkGpzfU2TCVUVpWZ5rvvuv0/Xrt7UG2+8rv2DQ8cYs6ynpcHA9o2YI+o0+GjBrjUsMJEbxxKCHxnhR7bwwRJkQta2zahDbChZ+7zOQxbFjj91M8F/NPFYM6IDpKMoDlPp75ENsULEL+Uj1OlUlV5+4QW99ML3deHSJWsOsiI/3OLdsax+8sMJCH+8G1l++7H9CgvCibMIcDOoDub4zre/rTOnNvWzf+/TGi0vW61laWyUGY9iLXfI7+VWLaiyeT51GcPOzlxlVTiBCnJcWR6Zk2/cuKXnn39eSYKUrBgckaHvZINjh+p4jRbpx8W1Bc3uy0RayrqylBZzfqfwgqMC8SGxdYCgMgak9M102EnbTI4bslitKo5tpzl/L+EioF9Vwvb/yb/7dw6xPfTkE5re2L4tNPdYyztf5ojNPUBMeC98/j0QjwNAQN9byTQqZqjBfQ16HV184AGdPX3KREqbxrWpnThSN+tLnVAlHpMjr8Oi4jt0e4kljbpIkN50MtO0ke4/f14PXnxI33/h+/r2t5/R+PBI+HZAcyQMtwOQvoibclZVFPKS8L7fA0Q0jdImcV5vVhS21/NpACFxVToUlyZdUSOTppXihEBk7O8TAndKCJ63O5Ha561q0l1GRlbRXM/q8rKe/+6z+jf/9/+j/+bJJ5ybrEkko4K4kTDlJFsAaAzRKmpAGYmpexMwHOJ9+9c/DkCoat24fsOO8YMXL+q+s2fbUFmqbkbNZQrdbFOISYuoSpUb5RFbhNP73SWDi8ODA738yivqdrs6e+6sq8pnk6maRz9iidvd2bOzjrtiN4KyCI7hQECA/05todJqyvRqSxaVZ4THirLUbDZ3iqiYz63OcfyxtN0shOlmEfUzZDLI0KOG7Ut43RwnpR4mJ31E8IG4OamqYGeH3a7K+Vzff/FFXf72szp1/n5fF9oK4hGowB1xJN6k4ui3pSmo/HtJ4PtEOgjHjYUzJK+l6Xyi6Wyi5eFAK8O+I/udNFHXRbOpuzO8DrYlxAvR8nA2ZeSZ6pwUTqJBf0kPPfSwpjjvTWSgw/sPP/KwiKW+fuV13bh5y0QEtaK2QZgNpXg+p+CzYQyx0c751USJapdGkI3A1hZWnY1/h34ELon6lzqOVYA0I6nfA7m2QXEj7ThkWSBAi8AhCM48GsA2uG406HR1sLWtZ77+Df3qxYsumoJ4SKhVuasJgn1GILnZHKE9ICqJnPb19/2OE1g40OYkFi2NQoRkeUn1dGY1hMNMqohgM/4UmQXIDrKrm0iVVXAIaEOArNt1xgFpHSwNNZ5MDNNB/LQHAPWJmAyXhlpeWbYzfXB4qPHRka5ubwkkymdQcWYsqsxalDih7sV2t3HdDRoDH62osIN1cE/qRnlTaDqdGxzxW5vrm1peGZnJWOKEwhvfwr1tYNVo7prOEDKDkFwv1/onX/iCPvNLv6jTJH4BPbFU5kUgvqsLTHNrKw67UPk8+MAICJc5V3Us9XAjxEJNpirbDABELsvGfhYnt0j3VA2GP1JTkS0IJQmAhzQKYbOY0BORiKxrkAGHL5iGYqX1tXV/v9frGTAQz9ybjzWeTh2pJBwXkY4ClCJlTaHZZKZ5PndFGerTBb7UvZBsAoQp0nxeBjVYlTrc26a5xBGkdHngFFITkevDJgbiICUFCJTvF02oDMDem8GJmUbauXlDb/zg1UBAriuLFaF2U5LX1OdCNNBwIirkUOShNONeldlemvf2D9JyV/iaEP1PVedwZ5vWIU/X/udEp5Omqbk+67RBAKd9SAFRRU0BdOiV6CadEJFp1Q5nDSGxQSsrKw6JEV1x30OWamtvTwf7+5qMx865wUBFWbRdP7WDBU0RIjC8B7cjKWY8qtjSwmgUexv8PzIcpcN4qPImC78dzGEALjYB4tilGrL3bQCB68D+djo9feUrf62nPvsZp9HS7opLBkXJhdObIfALMwQDEKSQhfjgJNCq7+1MwMvYwwhvug1VuR4kyah5dwbddoO6TuKYJXYcnEfMMbNtQe0mVbBhLDKFuTWR4Tba41yABZ4CpMZuRxmdUZ40mpWF9vd3tbN3S53B0GqJbDughT+QLVqMxZqXhQENV0GVWrDNBCNqFypRGQ4x5uVceyBrVHey7EYhAFhVze2SlEWhlIA1PobjpQCVoJqiKlFW13rxued1/eVXdOaBC6YOFXNonDgpLIEVsV0sH2vXSjQV5gtl/faV/oBeCSpyUfIQtPnip0BW2CU4nuRsuAD8rtghMEoZnAmIk+By0NOYZo53gkb5Q30SGO92OkqoPnN+LtXKykj94ZJVNTWwSdrV0eGRdnb3NB5PHd0piyBxoF2vdRyboEg0RMvnueiTgNAECQgQEK4D8EwmYwetYSiIBPIkEFHmQVOY+tANZiPU1pbz85w1AVX/9u/8tqK1JTWH8xDqA3SdcF6NctvFYuX4++AkcEGVt9wnDfWWmUolSkCEdah6jkqASvDXXBZRo37gMLyr1vNOQlgK9YyNMapMAhhwwVKIeHutiHYom9meZb1EdZ5ofbWj2bgnFX1Vs57evLarKCqslnOqBFgRmmeaRl0WjwVvwRigYlImduy5JH4K21hHtY5mYyeC+8M+Zt5lHpFKg58LD9yn5773PVUV7gnljhw3qOg8b1QnlRqy9+Vc1y6/psmVqxqcPuXeh15nqCSmIg67C8hjTQLpCDGixT50CSRQDEoLKDPYK7iMP0NsVJ/dDriPpQonbBo6LMX74RgQEHuKMkIa8N/CHxkH/MoghbSE9To9ra9v6Ny5+3Tfuft19uw5qzwStoEZYpU5QegAhghGwzjOLOSF5gXx0FlwuAmtObTJfWWkOj4aO/7q8B/22CYk0t7enhJnOML1cJ20sxHQBzBxj/QejSfaPzzU7//Rv5Z6maU8OI9wStJK4p3SwMrcXQK9cO2HeXyMJO88wI/0jLBTRY93CB0C1YkpOs588qcwkXHidAxpKBBt2qV8D8OOpxvUi3N+5BFP2lxATk0nUWoiwbhFAZLtK58PdDTra7gyVLfX9Wdsj2GVCJQY2wZyOIjJAgNSirLxH2tBNgPGgsFQmajTopipKHMVxEtpaWsoZK507Y0rBlPFHKBTKHb/RogusazTxrpIsNFhHOlbX/u6/rMbWxouDYxGUdEShVBoI7Oql90Ivy2KejsdThLs5OO3f/Jv/Uq4aMACdgBoHLjeqRe4f1Eb4rgiCxH4h4WqCG3R/1AEwJEXuSMlk9nEcVOO5U9DcLLivY56g57zeQsbSSMPRQ8UFp2/cEEfeewxl2N4acgjAvepk221QmCMtmi4zbbzGn9mJIon2qCDv0fjSekwkk8F6bJGwbUA2JSVpRbkyx8lI5w/TAJy3t3Z1e/89u8oW1lp19ac3K7L24lxdwnkc3DZ+yp94WBc3IzWrHmusleqoMYSrgQouHWftEpsVAlwgM3xE+HEeQsusCVEQBCVYE8at4GtLC23C4+ENg6eO4Lj/v9UcSfSSlNoNJ2IgiqkmP+m46kXK46plpsrn4csBmDFCNi2h0OWRsOoba4DQEN2YWW06rXK80J1TQA+pzTL8dTT585qkk+kolbSVC4pgdAVwQEkvAqB7rqJ1US1ivlUX//GV/VfHO4rXhmZCaidRQ5to09oR6zp3QnoD7WfDM7H31rS3vYFRC+KtL+/r9dfv4JOc1l4M2AyRl9NJ4SpqFpubLgJb1VezMl4EtwL3NmqY/VEpxD2h7NkEalnWRouuZfeoMeiG3yyjIIn3ICkq5QEK2izof5mzzYU6cdX3NnZtWpEkGES8oycM6o463R17vwlS/yNnW1HZShWwo87HI8dNCd1VVNB13pr8BjlFGiNFCc8RNECii0Ka6CcRC7gpqJwOfE18Xvf/PrX9PTP/KzUx9UBtN39dm8C8mu+2Xu8+7ffxascxYJvAkrXr9/SC99/WafWVkXRbJdGkiJVr+y6lKEEpbnes7R6ISVUlHNhQ6hJmc0SzedTgwqy9EnW1fr6mv1DQmsu1rbLFlkqcUdQcUgSROt1B1pZWbV0oLJcv1I1Wl1Zsc3d2d7RdDLXm29e12i0Yt9tXMwV00svamRqh97cvZSlmh0canfvwNJB1y4EhVJ1VImoTK3SFQPOEQJuQD8RUZ1WVYMkjWhDjpKir6Ojfb384kt65JFHNXrwIavWwJRBDI3BPbHhXhLIip+g37ug0z0/siAgti2Ka924cU0vvviibg37mo+P9Oili0pOx64Yw88rCwLE4cJJhqLqbt3a0ssvvaLLl19VVfZcmkAvI0i2Pxzq1KlTluyDwwND6+EwxEFPbW7anwwsFC4K27YAN/ly7mN0s4GloNcb6vLl13Tr5pYuX99Xv98x8Ym3Ap6u39x1kW826NsPxU/l5v7BorGfCAOBiI2q2/AebpFDfeQTMQPuX8TnPOnZsea1cPrpe3zllVf0xpUrirsdrZy9723WbEGiu0vgPcnxt39j4aeU1VyHW9va27ll+7G9s6OmytWjY4fIiivICDD3/Ng9DURqamB3of6gq8ce+6jyPISXgOa0P3f7fQeuQZVEQmgt6/Z76i8NPFUCsIGkwbD2mmiwyXD0K62tJloaFlpemrmrqakiE+b61Zt6eHfHgYR5Qe/hXMNhopXlZTd0EvymFXtSjG2blrNUk7LQNCcL3yavja6pLkg0pQAL5E0UtoFwIZfHSdm28W9DHU+ssphrHjfa29nSztZN9UcrWjl7f5t/IHAQZDHUnn6QobS30Jo+uuXRmj7xyad0sLujYnKkycG+Dg/Hun71ukgk9TohggJKtAnjkl2gm+r0qdOu4YyanlursUlOqnY6YdJUNwwrsr3qdo6RpTPlKHEQABdPFIdmmn7fxEClFQNyjKV6j/Q1Wh9pb/dAS8tLLomvxo16/RAwT+lWoqzGKplGlMRZC4OyWlripF1+QftYEaZeQTAAFWAFtGoAU7ZhtaAbeA1ABcrGqgOQKH7aurWl4cZ6mEOD67S4wZB+/CESkH4B/h56+KOin73JZ9rb3tYrLzwn6iK3trcNRFZXVxSTscA+EWecTdXzCLC5lgZLihKKdlfUHfQEOGEUCP5cXhemEQVMdhUcEmlNQahMctEQ/h32B+feCVra1JIQGSGvh7tx/vx5XbhwwfFPzmtptKrd3b1F05f9QxgFgDNDvTZy93AGAXETZnNnOMB/dV560AJpMbtNzrDDCDAUIMtOqyJXpVHkS9XeTLtbt7S3fVPr22vS0X7bDBrsGjKIL0rg4wNXodzELf0AACAASURBVAumWdwzQYlMQCeJ9MADF7S5tqKXXnhe165eddTi3NkzJsByv+8LZkJSvz9wWd54Qll747RP0km1vLystY0NT1Oq5nPl+Uzdbj/07C1suO+JTwY0xcUbkaLr7AhTLU6iiOxHaOx86NIlq+1PPf0pPff88+rdos0s0/got78J+kVaUM300J87vekIzWAwUBYnJio+DJLalIWBiyXQv9MG8tvzWRR14Mq4KqDX47Q0Pjo0Cs5nuWaHh+qt4VKgSVC6qGG0yYcogQsC0qz57HPPaffmdT166UE98dhjevDSJQegIQ6DeihryHpdRUUp+s7JweHwAmR/8Oqbev65Z7W1t6Us7evSow/p0Ucf1domSdVl0Tm0QpSH0nfSVGge65sQkuIgeFVBBYU1scPI4pDDa6Th8pKuXbuu02fOOOANKIHwV8bXbLOos3GEJs9dd0qCuMm6GhAkbxod7B+ow+93e2LyBXE3OpGCO4DfhwRyYiFsB0o+ONi3NPaIwUaNDg9cV2FGOdjbUw9f07dw5hbckPdYLO2Hc3/j2nX9xb//c7328ou69MAFHfz8nh5+6JJjk5woERfQJZ2vdMay1LPBTOMJEyVSvXb5sn7/D/9QVw/nGkj63Oc/rbWNdb1x9aoR48eeeEK0gq2O1pUOukZ25ly7MUhdsKvY1ttQ+8S18zloHklrK6seIcJj+upvXd91LyNFDhRnlWQnqlq7u/sadFIPHVoeUIMKzwDAKts+wl5IiwMTjrEGnkJ9AmcgIMiZ0SmdpYGuXHlde3tjXXn9dTe/PnDxok5fvOhaGZcutsdARX/oKpRM+Wh5VVs3b6mcTPTwxYvaXN9Q3CwfLxyqhwE5zglXzD3ramN9XdeuXdMrr/7A9SsEq5aXM6Hu/uP/9D/RMy+8qC/+0R/p9cuXHbB+/PGf0k99/ONaXd8MRHSaZyGNECkAEotcG9d0aAxipZn7K2CezfV1w/r5dGZpI1Ya1aVm4xmC6Bs5AtToEz/1uJaHyzrYO/AYFJiRsn/wB8EJ996itlsTaN/UzBLpzOkzmlENIJmQk/pAu3t7enx52Qpzf3tHq0ajjjEuLiRohHAaH86/T3zsp/Tzv/AL6nX72tg4raefelrrow3bNXoJkqyvOiK5S/I2UxVnSntLSnpDbe0dafvWli49+KDuW+ppabhsQNMfreszn/2sPvuZz2q0smoC7G5tafvWrVDVZemDZtRPUB5x4o9O0Zq2aNLjoN9UnbSrleGITnilcVeZMnWijk6tjbS2vKQOI0hSqd+N1U+lU6sDff4ffE7/0X/wq7r/zDmdWl/X+ipBCtraAGPApsYBAFrlyOWe/GPqYDmfKZ9MdLC9q1OjNY0GXR3s7LrXftDr6fr164HpDMgWsdofgwRG3b6e+MQndfHiRS31+9o8ddpcdMCQnNGqsi7tXsxsy8KCx1LWz1SOp+oNV3TxoYtaQ4o3X9ArL7+irNPT977yVWcCHn74YX3s8SecxKWWBJsoAssQkD+vWuuZ+jFMa1joCbgLOneSnns0JgdTM1aV46/FOnfqlEv9q3KuXjfzd0hfPfXJp/Srv/wrOtzf0/VrbwYXoXXaY1q/00QFzrvrasJl8buoVAhLkDuezpwCy4mPTqeepHHz2lU9+51nXIS1fu6+kKtkjCUnyu0DLWoKP/H2f4nCH4312KMf0eoSVWN95T7hVIPuwCNE3DFLng8d34R6FqrR7r9wQWfPndMTH3tCFx9+yE2Tn//8540Ex/sHWn9w3c48MczgD/bsl/lAPhN0WQAOAIXbNrBVp5jF1s/DhtH/DnpsytwB95VhT9OjrorlJW0sD4wuGTz0C5/7GW2OlvTSc8+onE7sx5ExoVe+5CKYX0NBBCmwKhLpMdQuKDZEY2r7ssTUYDyC6PjE5BK/9e1vaWk00mc2N2/Xjbb0wxW5uw1cfKCl8jFkezs5/tavzPb2NN0/0OMffUKnNzfcTZRPpg5EDwZD2zvGV7kGBcSIE8xggCiyRP3c5z5nJxvbhztAdAQQsEyvXdveZRtqA2oDc1sCEcSWbIS6/PnFPTayvbV0NHMRcaHUkAUt09jghYm5p05vurH0wvkL6iSxkJblYV9PfeJJvXn1mqdJjcelpaqpY2WdUEGggrHJZRB8h4cgYawsajzKy+Cq1RggX3776tU3jXpNFhjiGH/di4B8YEE1P15c2nu/x/kc9Puupl5ZGprbQJ2dwcDRE1QS0uYIr4kQbAeuBRdnH63M7VaQgqLnjsUlM+CcoYuhAnq1s2ych5oMatSLANFafWlt1Bbfnrw6jkVX71Of/IT++mgvOPJlqVOn1nX/fZsGVTRwIunb27dCjrIo3BNIu8CY7qnZxLNJmU8K6+DCgUb95x8jyG5gLJdJtqkl3BrcKVA3oIkKOObDQfhk6IO4HQEa3V0C+T0ofexDnby09/aYRYf7GRBAUhVfjYxBF2DQti3TQeQFxmBzHobaiXNpLkk0MXClKD8P5RnwGwT2H6vSfi/IXLBzgYZBDE8qmZNX5IRyQ5FwR9ODfZ194AE9cOGCO6Sq+ZHDaqdPjbQ2Wtfy0sAxUUoxcG/eePMN3X/2vA8XYrsM8qHXIoxjxuLBSJwzv8+VOa+Jli0iZS4/DZVxMBCZEgqp6DymOBnTwLy442sjrnvy5I8fc3SzJvetyB6/+d4ekMyEiOh/iOG4JPaG8npXlTF7LLlTYkhotm4F82HIcMOdlVVQGEzLojjK4n71MHjg9pnCCERj8M04dCiHOKbx7Q+a3lw+dpiFIwpy5twZLa8uqShCIni4tKz1U5tuYzvY29e4HmuJrMjGpoua6DzK86mInda1nQe7DsAnQyh+gAesLbeWmkEycVOYe0PJvzSbTx2VmR2NVVI1DtkXUkxm5eS5Hz8+SUCz9vE77/kByAspWVld1XAw9JjIbr+rfpZ6KlMIc7VDxNtr8/UyFYlJvBkRxwAGqAcFjOBk41NBxMXp3iZOu0hepcC8Hmpu/ufIt28wFqoa5DqbzWxf87ZJtChybZ7a0JnTj7sp1Wo/YZDBxEFnsiK/+Eu/5O9965vf1OH4yPlFBhFxvZybVSnyAAH42VY2OAsYUgn1NbzRiOo9bvRm7O8fuLV7Op1ozd9rr+mejjzvL65tcf0+3Hv/x+ChiYwW6V8nSIW/1OvQm06AOJSVLzQAGXqYFcnl3u0vRDD4nFuhWzWLWkKFEruBetYgXAR/5vv2cVs3c3yB4Zp8yUjmIsqBG8CiUxHeJLbVtFqz6ggOOcJ0eWRtQdkEyVymWuzu7etoMqNOIHQsIfkULHsYX6ReE+Z6L6zT3NMLpYSSCrYVIDLOGUela0oZZQljVYz7mrc1pgvteM+qtPdOp3segYBxyAYwuK6rfhqr38nUZ3pRv+eKZy86RGgLjAKnkjNE9TJsLjMXwwzhYkMxsNM8HnoXJDHY8QX0hKjozxPMeeIsTWZgPBMJsctxrNdffTnkGGMSsZEuXXrYPtl4euTgNiDmIE4cRbn/sY9q+9p1vfn6GyYWPRmUWkRx6XKMrAnqD9tGvBSGgTBM2WBNmMBIE01dRKqYbDELlWtoAoqTmRJFY6tvRkPh4d1V6IkLe78fLpgnTSIPVKWksJN1FXW6rn8MZhnikSMLzSCMpITs/u6JHgiDASSmBS9QlyCLrc7iIlGJSBZlDHQ7mbYhknFbMsNVorSQDBpfyDZ04kyHB/vCce92OxoOOs6kmLHost3e1rwkWUuxkrTxyZ/WE3WkW//m3yovd8TozMTD+OgPpHgrzBpFylH9aB9PTqPuhj5FSnC4SGwgcWBUrLP0cx3t7XsmuM+Uz7j+/1428P2m2onjLRbbbhfoi0LfTqaoy7hnwMvCMASH2+UHVqGMO2beaOt02ytoq7kJV6HucJAhJrbQ9nChSsMJWF4XwGFxTq2ALp7aMGGDqCnFten31MlCknU+PdJ0NlNVzESX7quvvibyl48/9pjGN27o1ne+61L9jY1NUenNMIZ5Mbe0UeOaZcEecY6WJfcXVkrLdpaNiVx5yJ4VhX3U2I2mr/zgFd14/bIe/dSngiG3uv8Au5NuL8idj1hkuA33lQbKpkQJ2LKHEZTB4IWSwSKEnxqqyNr9giCgCcG38N/aQDTzGRn1yHCBhAow5/2QxYWcYR9RjyRdbfFCUjWuDOEDcSkbDCWJTMpwg+1kqt3dsTMLvX7iqYTEXmGsRx952ECFSmtX8nf66vUD5KetGp8X7QFTusEV/x1AA6HatFlik8xZhhuSV5QzMyIT90f9oaYFCe8dXf7Ba/p7O9vqrI7c4RnXrl1YfPXDuUc6nF/z5Nowgti2ylITNtzwc8JQVETnufIyb8NTpGeIHhK7CFOYQI0eXcz38Z0AMZa+YGPeflVBCoKknXz3ztexT9grzsUxcDMcwAagEWt1NNLDjzyiBx580D6j613zmQezo1JpmBkzaguGgCnt/wXiwSy4UAAkaniYOYpW9B+sB4FbjcLvgRWODg/0tW98TVdvbkkJpZWY9B9DdxJFPvh+XBMzqmM6UfkjNwNwQfFb6YRyemKHbosmSQtxGD8JFlmsN8xrooa8GldmJ9jEDARiwWD0Yz6nFY1SirYNM44pg2dDkBChYQY3z5mEn7hEHlvMewx9RRUyMrKjqN9XzKCeJnHhE2e4uXEGBay9g6NQDE9LnMskkf/QugaB3FJHM09b7Z2yYww7w8SpeklH3ShzdIn5bgPMS1Fq6+p17V9+TRofhiXCVp7kwQ/jMdxL+Gk+nTg5qvncNTKUJhC0jVeXpU6mZsbUwrnGbL3j+pZ2+U24t9g2uLEsXRsKXCcDACMsnIe3XddCB594A6m2fQbk0DHlHsZgT3ndPGVBCp+zZM3n8IEliSDEqdMjM88XvvAFXbl82RVzoFn6Ask4wFj8tI/X/vbi2LhQLq9PEvXIUdE1PMXvDVpf44muX7uhL37xi54Q/NjjTyhmdNiJa/iAH1pnKq3h7FQU8GIJC3ojVGtcFrqxt6tXr1zR+PBAS2ubTh0xVybusgihPNBSQ+m9XQJquMCMLAvojf9dsGCUh7TaOfcgg5DGoe+ERYMd7KnYjWxcyh/qNZm7xvewz6FIN21KsZVBglzmuWd2J8mqtLpmiL+UdpX0h3rttSv6V7/3ux5oR7x3OU7U7XQ9+MeThTlLfpvR0W2LOXNtaDOLl3pq5nPX4qBWN9Y3dXjlinsP+4MldfsdzfKp3rj6hg6P9lQ0M8U0gX7AVLvj8I6BgjjjyAW7qA2aNynpY7GZxcmo453tbVU3t1ys++RTn9TIFWDo3LfIFHq0tS8LaOOncHoLlI5FB8k1+/NKZDtjyA4VMT7HN57TeFO6TN8lf+TuKAdsABhhRjdhrWh3z+c8neV6/Y039X/+q9/Vv/3C/+uMCru59Avap0MLtkHMQoxbScZvhZkANcSDw15It+3aysqSmoTfltvjdg529cx3vqMnPv4xXbh4UaONtXsQ8OT1tBd9fH3v4QE1mQx3Szps+Rp5A6rJ0aHrQxmnxUTAz/z007YLedR43AfzYjw3gBJ5ou/4dy5upWCJmhJasU22IIcQgwHpYBrbPkJZPA4XwutUfy0iLvYdXZYJ4YKqczYgL1xURYdtzZ5MczqJCofK3njjmksL2Yzy6s2b2trZ119/9ev62nefdUgwSzo6gnhsD+daGE4AXBzZprIVhy2Bi5nDyGayKUR6fHlqlNdzra6vinXY291Tt5Nq2OuqLud69nvP6Kmnn9J9D9x3DwIu7AzE8uP3QLWTX2UlGXLgYQEM0ym0t7ujo/0DD6WbHI11+r7zevDCBQ1GI6u/8XQunP6aVmmDCgjAsHPWOxDC9SYLZx7ubsNgnDqL5n4E/EcHsUGw7USlFmmGY4XoCG4KLgSTEVFpSAWeAIW6e3s7unr1urb39x0Qn8wqvXHtmr7/0g/0ytae+gkB+Z47r0j/UPYIszn+C2CixYyoDjPWrFDCNS0tLYehBpyP3QvcodACQH0OaJXaV9Tvzv6u/upLf6lf/JVf1VOfW/4hBHwfpc+cgKC0RUMUKlEzuUE5IFNz5/hvQU0yUm6FwlsKeyeFOknH+xgBZkCD9Ewge0iV1SDfYxISkui+dgw/77WRDdu5YButR12ZdhJMhBSXsxQO3zFYnVIM/LtQkkF37uuXw/Ag9keiPW6STx3d8caPdCJJ6jJOE9s0o/2MoUGVG0Ptojq6EgYLhRZpGJP4RYi3Yg8op0BTUbBM7z3Th3vdc04lsWbzYmpEnTKSy4PbT0rI4rFVqP8JeP19kcLW0YkiDZaWtLa25lFTc4jRtnD1EraKY4B4qsn+QQgkt30TjntClDYo7K46pI7TdPSJPFt4EkoVgqQufCtfWktUJBHCBwl1mMfSSSlDVeahGLeNw6IlIsaQgHLVuLmFbQmQ1Loai9ZqIi7cAExMvicZSzcutaOkpDhBNg1pxc7jlUHLnBvnMJvP1E077vUghsqrxF4dTI8TDYdLPjYFyLM81/bensN3ltIFze649zq0BOQn3i8C8iP4Pd2O82f7TKKAK9OusqgyYku6bPRhmOHNqHALbfuIaXJp7dhGc64lDJVJlB47AygIcU/qT0g/LQLe4bst4RYE5HcIoZDi8s6gBJBD4S0E5vFsNlY5m+rgiM4nEr3A/J6YDtxs74pNIxm9xRitklhPxRZJbKZVajrPNZ7OPC0qojWcK2GvCRpO2YUb3Zzh54b86GBANXpAoowZCWOfycqH9YCBhr2eJt2eAxpc091RKAQ7QT+v3Hv+J4AEq6ksUUo1c6/nDl3S0jRHNp2u+gSA89IAxY4+AwKw7EQrbEMbRTm+WojWczy6l+hwKlxzGVJAyBdAiXtfjkWx1QLttbhTqLWNuCVMyIIxvLGW1Weuw8MDjQ/2tLu3653NhstD9yPO8lIvvXpFB0dHbuAcYvvYUsd7VqCCK89XOxonRqWkvsjCcDZsrlVMc8dG3aQK7ooSXwen6cEKTaGU+eEUQ1FY1db70MgKuxol37Ok4j0T6y4HaBnC6DNLVHY7mvc6mnU7KmdzczFDeLp7B5KONF8sPTNjyFT06a7tqOpR0UVOLdfW9pZL6GnEDMPNS0c/kibshUtTJb17QbOGE4DbF2CGezidzEdRzJVWdBXRNk2f3kyTyZGKAgmbqdNNLXmo/jjObOcKCnyL3OoUBgqKirFa9NpXzqbnvY5HZlFRTd9fLxsISbt1tK/E45ipFgz7/EKocAtjykC9ZRy2yYOx8JmN5GlQa7MBd5fAhfTdhQ7v+SXbu0xxh9455lcnhuRs6EhW+rBBvUj5LBTyYF/gSrsL7MWQhQwEaaPt7S1tbK7rE5/8hAcaIFFs0AjwoDcCJx9/AprhIsD9npbUqlBUJCizqdmPliaU4CpUKei2MgHpBkbCychvbKzbHkFAVCOOP4VG2D6o55/hVxyLZcYpNmvuchCG821PJlrqdTUYLoVKN+xdq+ZDdigwl3UGr7ulPPikTEdE6tJOyLx4EvA7ZuSh1PtJSNjTKwkKo/go1qA/1KA31OxwrNks1+HBlm5t7SmuGlGNvO9cXCXKDfvLPZ09c04xg3lQqVms0cqShitLDi4TDAAnhE6jAAJsE+EGUCpE8zks0lTYOrplmbpElVuuGgLadk01mY49OqRpGHzApOGhCchERA8QIQfIAFgTjkUuxDgsa2peDOLoycFUqC31111C4hiuk85BFAjs21M3ExBtwo0NW+jBAI4aAajCD4VrMEYIkP7uEtj++PtKQJ8vcCQErYnAb2ycUlyUrmi2b0fD5GymcjrTaLSq8ysPaGVlqLWz59RfHujs+roOm9yDYdlQEYkrHDVhOgT1Ma7I8EWbYM6kH6+lkadtsCWvcDAbwoE8vetnO6h8dnigo4ODwPFJpqxbuXGF4Xms4NyuARm9MGWRtfXIEE+aYPFCmovFRwKxk8z79iYjRCYIQlM+QmAe29+GFZFkh+uY7wZAcekIHweYhWIwplnwOQcm7imB71lP3u0AC64k8Uq9SKPe6opOxxJ9DPnRWPffv6RkbVPFdKaL95+3BhgMuhqdO8vm7s5adNm7NkpEP4HRm9M7TMINvhwLzMIFgELgE8ATqtDsPVplhi0ALH1EWUzAYP8oYqKpNBCV/XITZwZQezjpKCWGLmCvACP9QV/x4cxDFwg2gESZVM/JE6nFx8NnZC8MpG0VFUoWI0t1dHRkVMnHvTdhwNKODuIucZ0OIrg9IJQiApIczuNMPvTSei8uaxou0KWCyyvaOHNO1XTuixwfHqoCfk8mlirmeA7HY2VNzy4IUXt8JOpjmCUa4f3XcCWxyuAn2seyy4GJIYcYcrf+WdAre+yiAlvVCYAh8pIXM4fKqL/kWKhLqsTTdEWjVbbfKbxzZ+hoaOz29Lpk7FPNPKAVuoW6G5tBUetJ40yp6XgsWsKZk0q//OpwRVcPrrmKAEmzNFKoBTXZiwLpa1NiIGQyJFa/9j8D8/4YCIhktuV/5uXwfHV9Xf0k8gzsccnE+BCThBAYf4+2IpTh8jwzd1A95OhcIxmLuagmlN3F4KS3Bsmciv21Sbf7AVFDn3qYGBVACsljxmX5c1Hknr219XXXw5CAxeYZKEEkzo3t2zup3Q4C07RRs/AAJyZThPOmaIl5NxA/1t680PbWjsv26aQKqJhlwbyE+TTebbhtfAm6rB1a5FBb7VLD0AnAKMAfww0VZ2ngt+tG/SzTYGlVy92BbrJVThGp6FIqHzZ4nGaRekyHR4Jd6YOaDDWhtnsGgaGPwqE1X1Pg6lBkz3exL2QTQmoI9MiUDLbCW0giIAZFFXJ3ldJu31vzdLthf0K2/cmZLG8kjUPfFZETCJmkoFLoGioCnJeug39HQrcq5qqyyBP7R3tDba6uqtdj7gxKl+viHBcV6ZUazz9F0loNQ/0MCeGqtErGLrKIPxYCen1ZeZAXzAecjtiOMdK8LszlcyIVTa2e2/dCDWhIJ/GdNgbFI2omHXAOA+bChbWHJiJCezRRFTiayjTP+kRdUsJH1CO3hIAiXTUeqGCfjxQPxGHbVzb+YOs89rZFjUMoVCejTpAsQnoQFk+O95wqMmlClAW1C6Ng02ezifB2iWcSteH7SC6xXjQC54HUci24JFwjboOBUsQcbxAzduHHSUBUnQt65A2QqcXsr61pdeOU/avRqXXPMIvZ7x1ae6IRSqbdyRMb3qKzkCwKra+Ez/iUp0rXlVIu1LHS2o5wVc9Us9GjCZdbAtQUnp9NWTQLg8vgMn/266XQlkV0zSHBMILPjvM4Vtvv0xvP5pNx2PfWzEWUqFRdpg4kBJeCGTAwVORxk9NoJs0a9ZnI0e04zMZvwNNkL+yOgGAAZOzBBAELkt+k2Ti2T+THKIGIngOd7VnHkYfGnT59xvB9c2NTxSpgIwAHPg5n4uXDkaxTICC2Lag9z1lDgk0xtu0pVc4bl7SzKLgqBZtozUGZAYlSLMvxnFhOEg3SVCsQsNNT2g27UqO2gfegCOwkHVHT+TTs8WTpoUyE4a9hh+rgdobzCqE814vbvpLDjKOJ4qrr82RUGGgTxiljcGsVJmGgMtkCYU4FAEHyNLSWtzvLoJ3sjliH/bj+sdXmn1B8W6ckfDNLClsAMC0iURhIHjZb5ZNtUe7iay5GA6VBkBBRQR0SEnO8FAkEuRmNBiLWNaMe21QRtoSAehJZvbEUABbCXCRZAVEQDhvl06R4uK1UywhsI31dcnYhdUVhFOaLaU6oQdS31SHl+d4AGQKGYinSZaTOKPlxFNyaAzAWtkIgmTxmXqmnMvZcP0u8t25Hl4Ckf3w28JhpWkDTRkuQSpzyPJ+rV2Jx0BUwGwGAkI1w6Cpol+DUOvUTZpBZsgxUAlhxsRPIExvIFCUIidPvIiNAEqgY9NfO48a2Mf2JCYXYT1BuEybmMhCIAl3ABtES3AxcAyrVQuoHjUecMvRY0BFl35OcYp15Mj5JaROIdB7qMokcMMc1hyexKviWNerSe0QR4oOHKkXUs9omeinQoe+CgGAGjvxB3YJLaOXPphyU2MedQvO61sFkrk7K5HhKMID9aN0AfHw6Fopa3gzSk+eRPKQwhMVAlXU1t/0AzVkFt8MGrINJP6DGsV+UN/QyV8wxYC5mY+S0a2IAhBz0piU6ZYu7ngbLSyoqaW1SamW0ou6tbZdBeKS0i4pD4RXMBlAh+QuypMaFzWicAksjv06y2EyJG+EJTOwMw34WACDaAULKCSfeFQOuRAhbtt5bAikeadXUB0W74+O2DAI3E0JD/XmybUK1deMe9agK/tmCgHZ4OQCtyQxarSiDyD2fk4FxBKiN6xnzAWeD6rx5VXDqPUTVRcZB8mhUAUyAMKnPsRrlfVQnKtP+XUCMnOf6aCQEa3VUaGOdaVHXdchWqv41wpth0j0E8Hl1EgMdfEO7Q2Tw2bfQbsTxStgeOwnsoix+OkSwsNP+C4Hd4y/cm4BIBmrtw7jxO1GsIb4Rjnuvq52bNzUn1helNuTsrcQtEJBQGYFkWtMyVz0xl5PoCdltkqJEW7A/oEOrX7iX7wN+YtQk1XEkk8NeTDFTJ2J682Op0wvL5HpUksDsmMJvUi1eKU073rtp0Js5FLa6sqSl/kA3qx2XUMAyDqdFkXKceFwFCoJd85p4CyJUPX2KpIdwHVIGILAM7Y6gMMwiZbRQUj4ph91aosTvVNhrmxScyGOn+4MiZqCNq8mSwcDbxjUe9Jorns8cGqaMDyc8SEQbsY9jTbyxFTO0c0f+HZxm0m5DeR4V1QAcr4wrxIwobbMiF1fZEbe/lypLum4Nw/ezunV2IQAgO+gEEgix0c/Y77uqYD6vXPpuVVmEYis+y2gwsglgJAhDkjYEzAFBC23AZlghxxezAxqS7lMN3bksN8/5O3k7+byVwJMvnfgow4qpSwAACjBJREFU1v0eb5341Pv3EHvEcJzVFZ0djTTd2tH0YFu716+5vEKUmNv5D91DlGacPXPaMzbL6Vj7+xMxTI+NNDNG9TN5Hme+3ToHkEt4ropJZTFQSMq6A2faSQhja3mfEd3smu32aEr7kV1cBALMDHMl3Ge0iiT2tLFGrHRoH68sHVex34rzDu/wNyMqUxbqlKmyiDbVsEcv4fHIzMYRo1Ca0dQeEMTkQo4Qjkh0hqwEhV285l7xHwJiIN5COt4/Mr3zkRwbC0Wd/TMb6i91tM6egMc3K0Jf7OKljGeTsVauvKa9HWatAftRv+z4Enw5EsdGm6Sh0lhMQeTayChAYEdTWEMzSDgykgQ3hMK0YIOQGDy8BWqltfr06dNaW9vwa+V0rsjotYWU7Zk6xt2iZX7Dl2musNdqdd4+NcINv8J5BKkM0d0WLCwuHCZyBezdqPRhE25xUvhEXInvxejAxTvt/eKNhWoIBB2P9/TmzV01DZn4EDPFnrmXPWX7ceB/GIdMdIfaVJw3JC50A+HI0dLCrxu3S0yxh4fJ0C8KodLahVAMTEqpDihr9fupzpxd12g00N5k6jhtwebNSC0SiO+GKp0XngPAQR0rDdWQtrtohxCAoLySYDi7RQXp9THesgq+ehjwLa//BD0NS21iE6TOC+8/tNQPw9MhFjM+cbLdEWXQIpewJwAWpAQH3mWKFEwhkCBECLkIFmCvWNY2nioC2ehhdoipnU4iCz+bl96rCdtI9G2xoTGNPAFAOWjiEBnBhsbD0xF2jh2oi8dINGdhtd4ua3cnTSAgxsC8dvcP/d18daEigkR64eNOGCwA+DBwIRXVCQjSxOKzKfN6bYc8j4YVwzk/BgttYAGt5JYyDCJV1ZEdaXZwiSuYI1KZxepFmQZFpv6ArQnYEkiaF5UKgEzCHBgGyppM9htnVeXy+owQhceEVE7mlpxHO94LLZ624Cc4QfcmZ1iFe7//d5B2SN5b/1r1Y2nBvjSWPOwffoMRJKqyTUf5OQT1NuIhssJ7jrLYHiIJSSgspvoZgOPtgbCXvBdSRk4ut4yxvrGhBy/cr8GQbqTga+KyhCfhjmASNaQMBmKTEDbU4jX2aXJnFK4EjGf0i+1zFN/P70WIoDt+oqQPm3fyxiqBOEsprRRlOOMR2akQY6S/jsfeypSuWOKW3HcMUAIxkMxAaDRRHFPvgm3EhYDHg4ZybIOgJzt/tlP2LaiKPHrroYcv6tmXX9XW7tzDejhLiImCwwZiWuuSdjLazENxFx1PTGckSlODfImlEtx2G5qhr8N+ZlpzRmBfr0AIz55cjJ+Ux2FBFwsbzjpUhEEQ74QC5LfkMCmC/N0iXkkbd5BGQ1VLYgANduzpU7BLkdn5RsooQPJxLZU0pISOIpxz3AG+h71jDOb5++5XRM9f2w8P3dyj4SAEEaGw7xPuDfYRX5FKOtSsE8l+zHs8B/kGAIW9RFqdgXGNDzo2pLd+Uqj2judpbWXUFoLJEIm9JSxpFEJZ6pjyhL2DiPwhTfxRb4LNQ5IXryGVSEIcsg/UsLlmBZWLeg3HhMBEgxj0c//Zc3ri8cd0+uxm4I2WeHYEOXtGZ1WVgw/sUU+EZlpWmpal5oyZpDOKlBVS69Ka9ryodrNqDQQNhOWKf6JR6J30RCaD4x4SuGwEQEbdzTIJTZQkXJG820MQghy30txGQeDwAPFDiUPID4S95tGDrowGxfA5wmO0g7OWaSo6aePuUNdubmtnZ1u7h7mVr4GGa1bZS4lkb61ZTQ4xDOZgNjit2MqZUIgrE6ZTwQWWPLCqiUqaOmRrQqSo/dydS/GT+wwoTvyQQDIXT0aBCm0velvthZS5thLpsFq9LXFIYehBgBmCS+Hn7TR7FpEFNLLkNRpc6N3ohNILsvjML33k0sO6eP681SqSQzy27c2xMAJayLZgaQviqxy3jtjgzFJptRqdUK3swMTAH75DrpBsv/OcJmDri/zk0s1nvlChIZATpOzYprUVbfbkQaIO8AcAHi47BKtQce7ch9iOpGJmkFC03wIVtq/5OCFQAIOgolFtzDp9+tOf1qc//WlvO8DUNCZN4OO5KQUsQwPLgnBk2JumJVxjHxKYRvU6x0Nz+rG/F2gVAgPBzwj7l3KGHNUoJ5xwuLCfrH9tJoKpsV2DgCxuUJJcH3audSeaUINpYvKPPwUbBFASqBzUmb04SyeP+JUQAFgsFwjS/n9NYDtWf7DirQ/u39zQeDxxYjinSMsdHiEKQwAAh5+RzByH4Q/cICbMEoqDsYX0WLAVXwA6DHswYfkSfuRC34eQfbiAnyyynTzb0DqN0Dh/x8UBx9u+CF53zAIi2UlvpQm/y8lUgAv2Mjz3ZAmYwPaVFBG0o9o6IEQzDP0LTIZygVX4PUZE0gb2yKUHdHPrlhs9nTI6ERpjb0TSVKhNvluBfv1LbUgP9WwkSsEywYBWxhYuic+Y7WDt/Aao6tc4yfdyC4wUjnDyWCdff+vxF587+ZnFa2/97D2ekyZi4i8zaKg1cV7PURaUItIGUQOCDJLZBrD9HmWBofDIiWJwv1VnKPWDGdwiTfMaEpJGioGJ2FkjwTAyCFeAQnHs2crqmj762ON6/dotvfjSK96ps5tGoiMZ4WFSL2CGiIzLMDJ+n9gn93RsBU1BNoJlCSo8vO9las8vtXrgQ3T3ODfVkth24B6rdbeXFwvO2XHz8/ZFn0H7ut9vQxWcGi8HNRC8XYeUjg8QjuWDLX6gfemOu6CGsDGoHrINlEV06Fvga/4ZYBzTK/ij+TNRhe1qwYp/sVWlJiVosK2Ai+IqxEATVGUYPMviU+kGZWlHY/YNXhmEYcZ10unqiY8/qa39I73y6mVNykoroFZ6D0nw8luuRCOKTeMKYCt1jLYmH0alN79B4wx1NhCcdfC5UwISwJdtIAcDllJL4rpKo7N7LFhLh7esX/sU4ofiI3Pw4hD+Dv+079se8Jzq6pBzdDITdWSJ4Is+43BcL+wCdKC4FgfmbX6vdvEtG2FRtUZVGn7WwXjs0RwkaL1gTXDoccpZoOBSYOdAn+1mVT5NggBOB9u20SEMMVGw7uRd9PSVtZK64ykYFE2RqU8KgEikXt5os9vXRz7yEV188EHtfP9FHcxCgZYvCp3ILtZAm3mpw/FMy92xpuwoEkXqpcgmzIf9C0PQ6ZWcFrXYKPbNazdcVR4dbl1t4EJO2PE+mkfIbRyLbfCHoL6X1Yvpt0/8s1jcoBb8rBUuPhQyzcEJDSKHWgiqITznM6EGB1vOYnuAndUL83YCYf2DMYsQCMgSwHDYuNnkwJtuYBKA2K6MSJlFSuYA1QlDMGsmXBsqNzwOldZIKe+gIFx9xvng7/kCwnXxs84gtJEQs6CLcDFBLeCoam/yXNaxexiy5ZG2blz3QPTJlG7fMMXQSJJ5qFxDTPMVU5066lplhKYYzpu14DdxIeiaGk+nOhxP9OSnP6tPPfXT+v8AtPHclnxHdxMAAAAASUVORK5CYII=;" vertex="1" parent="1">
          <mxGeometry x="400" y="160" width="112" height="108" as="geometry" />
        </mxCell>
        <mxCell id="1xZrTiALznDN8aHcxSZK-57" value="" style="endArrow=classic;html=1;strokeWidth=3;" edge="1" parent="1">
          <mxGeometry width="50" height="50" relative="1" as="geometry">
            <mxPoint x="400" y="160" as="sourcePoint" />
            <mxPoint x="540" y="160" as="targetPoint" />
          </mxGeometry>
        </mxCell>
        <mxCell id="1xZrTiALznDN8aHcxSZK-58" value="" style="endArrow=classic;html=1;strokeWidth=3;" edge="1" parent="1">
          <mxGeometry width="50" height="50" relative="1" as="geometry">
            <mxPoint x="400" y="159" as="sourcePoint" />
            <mxPoint x="400" y="299" as="targetPoint" />
          </mxGeometry>
        </mxCell>
      </root>
    </mxGraphModel>
  </diagram>
</mxfile>
